<mxfile host="app.diagrams.net" modified="2023-10-31T17:00:36.933Z" agent="Mozilla/5.0 (Windows NT 10.0; Win64; x64) AppleWebKit/537.36 (KHTML, like Gecko) Chrome/118.0.0.0 Safari/537.36" etag="RUey3IIeZ_yldhiFVi5r" version="22.0.8" type="device">
  <diagram name="PÃ¡gina-1" id="vkN7lMM0kPoKt55m9Ygx">
    <mxGraphModel dx="1341" dy="281" grid="1" gridSize="10" guides="1" tooltips="1" connect="1" arrows="1" fold="1" page="1" pageScale="1" pageWidth="827" pageHeight="1169" math="0" shadow="0">
      <root>
        <mxCell id="0" />
        <mxCell id="1" parent="0" />
        <mxCell id="k2h_aMqqYUPR7f8B5dXa-105" value="" style="rounded=0;whiteSpace=wrap;html=1;" parent="1" vertex="1">
          <mxGeometry x="-22" width="920" height="740" as="geometry" />
        </mxCell>
        <mxCell id="k2h_aMqqYUPR7f8B5dXa-12" value="" style="rounded=1;whiteSpace=wrap;html=1;shadow=0;strokeColor=#000000;fillColor=#FFFFFF;" parent="1" vertex="1">
          <mxGeometry x="132" y="20" width="720" height="500" as="geometry" />
        </mxCell>
        <mxCell id="k2h_aMqqYUPR7f8B5dXa-5" value="" style="rounded=1;whiteSpace=wrap;html=1;direction=south;fillColor=#7A7FFF;" parent="1" vertex="1">
          <mxGeometry x="110" y="150" width="60" height="150" as="geometry" />
        </mxCell>
        <mxCell id="k2h_aMqqYUPR7f8B5dXa-6" value="" style="sketch=0;outlineConnect=0;fontColor=#232F3E;gradientColor=none;fillColor=#8C4FFF;strokeColor=none;dashed=0;verticalLabelPosition=bottom;verticalAlign=top;align=center;html=1;fontSize=12;fontStyle=0;aspect=fixed;pointerEvents=1;shape=mxgraph.aws4.gateway_load_balancer;" parent="1" vertex="1">
          <mxGeometry x="133" y="203" width="37" height="44" as="geometry" />
        </mxCell>
        <mxCell id="k2h_aMqqYUPR7f8B5dXa-7" value="API GATEWAY" style="text;html=1;strokeColor=none;fillColor=none;align=center;verticalAlign=middle;whiteSpace=wrap;rounded=0;rotation=270;" parent="1" vertex="1">
          <mxGeometry x="64" y="198" width="125" height="50.5" as="geometry" />
        </mxCell>
        <mxCell id="k2h_aMqqYUPR7f8B5dXa-8" value="" style="endArrow=classic;html=1;rounded=0;exitX=1;exitY=0.5;exitDx=0;exitDy=0;exitPerimeter=0;" parent="1" edge="1">
          <mxGeometry width="50" height="50" relative="1" as="geometry">
            <mxPoint x="70" y="225" as="sourcePoint" />
            <mxPoint x="110" y="225" as="targetPoint" />
          </mxGeometry>
        </mxCell>
        <mxCell id="k2h_aMqqYUPR7f8B5dXa-19" value="" style="rounded=1;whiteSpace=wrap;html=1;" parent="1" vertex="1">
          <mxGeometry x="176" y="390" width="120" height="60" as="geometry" />
        </mxCell>
        <mxCell id="k2h_aMqqYUPR7f8B5dXa-20" value="" style="shape=image;verticalLabelPosition=bottom;verticalAlign=top;imageAspect=0;aspect=fixed;image=data:image/png,iVBORw0KGgoAAAANSUhEUgAAAIAAAACACAMAAAD04JH5AAAAYFBMVEX///9ssz5nsTVkry+w1JyVxnppsjnV6MqUxndiryz7/fr5/PderSS01qFgrijg7tmBvV6fy4Z6ulOMwm3I4bvx+O5wtUSbyoHo8+K826xarBzZ6tCkzo2q0ZVztkl8ulfERDarAAAEs0lEQVR4nO1a25KiMBCVRIMhKMhNwNv//+U6kwShOyAJ2a3aqpynKXHsQ6dP32C3CwgICAgICAgICAgI+I8g4sfhO66POPk79quCUrIClL6qv2BelJxFK8H40bsT6oKuNf8DmgvPBEor+28GB7/2K25n/80g9mlfPFefvwYrfBI4WR7Arws6f/br3t5+FKX+4vBKXAjQuy/7Wepi/+2C1o/9JLeOQAlS+iGwIEGWEn6eZ8C9pOS6mXUAybNEVPMBwgofcXiflaD6/QUG9LTd/oIEtdJf8zHiQYoluj9GlEGdbY9EX0AEyHWr/RjFGM+vOTcQYNHh2iAK/LbNvoASZKQTO9FxRIC96vd5oaJJym2dQQccwFj8sTklkP3+fYEM0k1SrNHxSzO7igIC7KX+ZQ/SJntuicMruB+u7O86SCAa7EAG9OFuvwW/9clsBYMEyFB9oW547UygnEYgvajPhYy1qQqoZiei6b+5SzGe5iBWqIBun/JkQB7odfmNwcH1jlIUIMOdlb22mUlEXHvoMD0ElrtJ8TStguQoP04K/fOQQMRV6m9hFDh1Z1CCqXLkR+mIwKCSC3DB0yUOgQRZLj/OPoGBCehWGPZQLt1ZBqqgCvJxe4QJDHkPZvDevjsDEoxS6cXbKDcbCOh4g308O9rar2BGbeTn4wbZQCA6yyjIYBuXWg5KogAOIPIU6+f4VAwEdOKFjTR72ZWEPbwDFQK3sWtNBPQZoFnubCXFNoIgUoTdNwKRUtwBtSaNjRTxLKjK/eMrAdMX5bdtXAAj4I0W2zISoLe5W8jX209wd9lsJhBF6wnUhv+WBCZjqu76J/6aJ8DW68BAQB3tfnyFSbd002/PxYANAcMRKHdXk99lTVW3j6nklQoM44TFEaBUPsRwBgtt34OapSZidAdDOV+FDjmQyK0XmhMgVEsg8EqB2vTnhqUUkVceX9ZlRAZrjL5mmYthLRrWHe3yukpXvQcKAdtqBKvxoDk0+kzQSw0kyINWEfCDDA6l7CmrTL10BipSdjFyILfuSC7QibrZWdrYRFKDCfaf/XhUo4qu98+HWQY6N9/QTH92GBBP0M5Q0Y8ze6mzFhpamTj15agp0vVgl9xNi0NGdJyjOmBTCEeo8LJBX+oIkhkt9OSc4VbAbXOeoHzOh1DKjudJF0LZSY9fAq31iOuzgxYtyPrPWWYXnlLC3iC8f3ZDkCU5cs7ZeT7HK8JxNCW307Usy+O9Gmlc5PgA9q72d8JQloGgk+ng274MZXjDmsrQ1/DjgqRvkYHylgcXiaE7JWSurtZXw1bVUYIaeE/544SXSVb1CWsz2r6pxAPGz13RvGsnJyuye2Msk8NeyRUz9Z9xVu7jthZJIuqsur/4TJVm7isyBUN7q92QpjR6NhFPOZlr1LiHff2XFmj5KttuH5cEC1g1orNwfWbl7anVzdkFerW9FXBlvRbenlyaZtU12C5BDdSdrYLbftQIw7C64v5thtFvsH9/YXsRmAK3Od/g68Gxws2egCcJahg78QWk7n3YDC5Wb1H03l5e+ODE1qaD9xc9vj/yQXtt6Co0F0+vTiDU1X4FKm8JMCAgICAgICAgICAg4J/gD4J8Ogog6069AAAAAElFTkSuQmCC" parent="1" vertex="1">
          <mxGeometry x="182" y="400" width="40" height="40" as="geometry" />
        </mxCell>
        <mxCell id="k2h_aMqqYUPR7f8B5dXa-21" value="Orders" style="text;html=1;strokeColor=none;fillColor=none;align=center;verticalAlign=middle;whiteSpace=wrap;rounded=0;" parent="1" vertex="1">
          <mxGeometry x="222" y="405" width="60" height="30" as="geometry" />
        </mxCell>
        <mxCell id="k2h_aMqqYUPR7f8B5dXa-25" value="" style="rounded=1;whiteSpace=wrap;html=1;" parent="1" vertex="1">
          <mxGeometry x="270" y="195" width="120" height="60" as="geometry" />
        </mxCell>
        <mxCell id="k2h_aMqqYUPR7f8B5dXa-26" value="" style="shape=image;verticalLabelPosition=bottom;verticalAlign=top;imageAspect=0;aspect=fixed;image=data:image/png,iVBORw0KGgoAAAANSUhEUgAAAIAAAACACAMAAAD04JH5AAAAYFBMVEX///9ssz5nsTVkry+w1JyVxnppsjnV6MqUxndiryz7/fr5/PderSS01qFgrijg7tmBvV6fy4Z6ulOMwm3I4bvx+O5wtUSbyoHo8+K826xarBzZ6tCkzo2q0ZVztkl8ulfERDarAAAEs0lEQVR4nO1a25KiMBCVRIMhKMhNwNv//+U6kwShOyAJ2a3aqpynKXHsQ6dP32C3CwgICAgICAgICAgI+I8g4sfhO66POPk79quCUrIClL6qv2BelJxFK8H40bsT6oKuNf8DmgvPBEor+28GB7/2K25n/80g9mlfPFefvwYrfBI4WR7Arws6f/br3t5+FKX+4vBKXAjQuy/7Wepi/+2C1o/9JLeOQAlS+iGwIEGWEn6eZ8C9pOS6mXUAybNEVPMBwgofcXiflaD6/QUG9LTd/oIEtdJf8zHiQYoluj9GlEGdbY9EX0AEyHWr/RjFGM+vOTcQYNHh2iAK/LbNvoASZKQTO9FxRIC96vd5oaJJym2dQQccwFj8sTklkP3+fYEM0k1SrNHxSzO7igIC7KX+ZQ/SJntuicMruB+u7O86SCAa7EAG9OFuvwW/9clsBYMEyFB9oW547UygnEYgvajPhYy1qQqoZiei6b+5SzGe5iBWqIBun/JkQB7odfmNwcH1jlIUIMOdlb22mUlEXHvoMD0ElrtJ8TStguQoP04K/fOQQMRV6m9hFDh1Z1CCqXLkR+mIwKCSC3DB0yUOgQRZLj/OPoGBCehWGPZQLt1ZBqqgCvJxe4QJDHkPZvDevjsDEoxS6cXbKDcbCOh4g308O9rar2BGbeTn4wbZQCA6yyjIYBuXWg5KogAOIPIU6+f4VAwEdOKFjTR72ZWEPbwDFQK3sWtNBPQZoFnubCXFNoIgUoTdNwKRUtwBtSaNjRTxLKjK/eMrAdMX5bdtXAAj4I0W2zISoLe5W8jX209wd9lsJhBF6wnUhv+WBCZjqu76J/6aJ8DW68BAQB3tfnyFSbd002/PxYANAcMRKHdXk99lTVW3j6nklQoM44TFEaBUPsRwBgtt34OapSZidAdDOV+FDjmQyK0XmhMgVEsg8EqB2vTnhqUUkVceX9ZlRAZrjL5mmYthLRrWHe3yukpXvQcKAdtqBKvxoDk0+kzQSw0kyINWEfCDDA6l7CmrTL10BipSdjFyILfuSC7QibrZWdrYRFKDCfaf/XhUo4qu98+HWQY6N9/QTH92GBBP0M5Q0Y8ze6mzFhpamTj15agp0vVgl9xNi0NGdJyjOmBTCEeo8LJBX+oIkhkt9OSc4VbAbXOeoHzOh1DKjudJF0LZSY9fAq31iOuzgxYtyPrPWWYXnlLC3iC8f3ZDkCU5cs7ZeT7HK8JxNCW307Usy+O9Gmlc5PgA9q72d8JQloGgk+ng274MZXjDmsrQ1/DjgqRvkYHylgcXiaE7JWSurtZXw1bVUYIaeE/544SXSVb1CWsz2r6pxAPGz13RvGsnJyuye2Msk8NeyRUz9Z9xVu7jthZJIuqsur/4TJVm7isyBUN7q92QpjR6NhFPOZlr1LiHff2XFmj5KttuH5cEC1g1orNwfWbl7anVzdkFerW9FXBlvRbenlyaZtU12C5BDdSdrYLbftQIw7C64v5thtFvsH9/YXsRmAK3Od/g68Gxws2egCcJahg78QWk7n3YDC5Wb1H03l5e+ODE1qaD9xc9vj/yQXtt6Co0F0+vTiDU1X4FKm8JMCAgICAgICAgICAg4J/gD4J8Ogog6069AAAAAElFTkSuQmCC" parent="1" vertex="1">
          <mxGeometry x="276" y="205" width="40" height="40" as="geometry" />
        </mxCell>
        <mxCell id="k2h_aMqqYUPR7f8B5dXa-27" value="Inventory" style="text;html=1;strokeColor=none;fillColor=none;align=center;verticalAlign=middle;whiteSpace=wrap;rounded=0;" parent="1" vertex="1">
          <mxGeometry x="316" y="210" width="60" height="30" as="geometry" />
        </mxCell>
        <mxCell id="k2h_aMqqYUPR7f8B5dXa-28" value="" style="rounded=1;whiteSpace=wrap;html=1;movable=1;resizable=1;rotatable=1;deletable=1;editable=1;locked=0;connectable=1;" parent="1" vertex="1">
          <mxGeometry x="176" y="40" width="120" height="60" as="geometry" />
        </mxCell>
        <mxCell id="k2h_aMqqYUPR7f8B5dXa-29" value="" style="shape=image;verticalLabelPosition=bottom;verticalAlign=top;imageAspect=0;aspect=fixed;image=data:image/png,iVBORw0KGgoAAAANSUhEUgAAAIAAAACACAMAAAD04JH5AAAAYFBMVEX///9ssz5nsTVkry+w1JyVxnppsjnV6MqUxndiryz7/fr5/PderSS01qFgrijg7tmBvV6fy4Z6ulOMwm3I4bvx+O5wtUSbyoHo8+K826xarBzZ6tCkzo2q0ZVztkl8ulfERDarAAAEs0lEQVR4nO1a25KiMBCVRIMhKMhNwNv//+U6kwShOyAJ2a3aqpynKXHsQ6dP32C3CwgICAgICAgICAgI+I8g4sfhO66POPk79quCUrIClL6qv2BelJxFK8H40bsT6oKuNf8DmgvPBEor+28GB7/2K25n/80g9mlfPFefvwYrfBI4WR7Arws6f/br3t5+FKX+4vBKXAjQuy/7Wepi/+2C1o/9JLeOQAlS+iGwIEGWEn6eZ8C9pOS6mXUAybNEVPMBwgofcXiflaD6/QUG9LTd/oIEtdJf8zHiQYoluj9GlEGdbY9EX0AEyHWr/RjFGM+vOTcQYNHh2iAK/LbNvoASZKQTO9FxRIC96vd5oaJJym2dQQccwFj8sTklkP3+fYEM0k1SrNHxSzO7igIC7KX+ZQ/SJntuicMruB+u7O86SCAa7EAG9OFuvwW/9clsBYMEyFB9oW547UygnEYgvajPhYy1qQqoZiei6b+5SzGe5iBWqIBun/JkQB7odfmNwcH1jlIUIMOdlb22mUlEXHvoMD0ElrtJ8TStguQoP04K/fOQQMRV6m9hFDh1Z1CCqXLkR+mIwKCSC3DB0yUOgQRZLj/OPoGBCehWGPZQLt1ZBqqgCvJxe4QJDHkPZvDevjsDEoxS6cXbKDcbCOh4g308O9rar2BGbeTn4wbZQCA6yyjIYBuXWg5KogAOIPIU6+f4VAwEdOKFjTR72ZWEPbwDFQK3sWtNBPQZoFnubCXFNoIgUoTdNwKRUtwBtSaNjRTxLKjK/eMrAdMX5bdtXAAj4I0W2zISoLe5W8jX209wd9lsJhBF6wnUhv+WBCZjqu76J/6aJ8DW68BAQB3tfnyFSbd002/PxYANAcMRKHdXk99lTVW3j6nklQoM44TFEaBUPsRwBgtt34OapSZidAdDOV+FDjmQyK0XmhMgVEsg8EqB2vTnhqUUkVceX9ZlRAZrjL5mmYthLRrWHe3yukpXvQcKAdtqBKvxoDk0+kzQSw0kyINWEfCDDA6l7CmrTL10BipSdjFyILfuSC7QibrZWdrYRFKDCfaf/XhUo4qu98+HWQY6N9/QTH92GBBP0M5Q0Y8ze6mzFhpamTj15agp0vVgl9xNi0NGdJyjOmBTCEeo8LJBX+oIkhkt9OSc4VbAbXOeoHzOh1DKjudJF0LZSY9fAq31iOuzgxYtyPrPWWYXnlLC3iC8f3ZDkCU5cs7ZeT7HK8JxNCW307Usy+O9Gmlc5PgA9q72d8JQloGgk+ng274MZXjDmsrQ1/DjgqRvkYHylgcXiaE7JWSurtZXw1bVUYIaeE/544SXSVb1CWsz2r6pxAPGz13RvGsnJyuye2Msk8NeyRUz9Z9xVu7jthZJIuqsur/4TJVm7isyBUN7q92QpjR6NhFPOZlr1LiHff2XFmj5KttuH5cEC1g1orNwfWbl7anVzdkFerW9FXBlvRbenlyaZtU12C5BDdSdrYLbftQIw7C64v5thtFvsH9/YXsRmAK3Od/g68Gxws2egCcJahg78QWk7n3YDC5Wb1H03l5e+ODE1qaD9xc9vj/yQXtt6Co0F0+vTiDU1X4FKm8JMCAgICAgICAgICAg4J/gD4J8Ogog6069AAAAAElFTkSuQmCC;movable=1;resizable=1;rotatable=1;deletable=1;editable=1;locked=0;connectable=1;" parent="1" vertex="1">
          <mxGeometry x="182" y="50" width="40" height="40" as="geometry" />
        </mxCell>
        <mxCell id="k2h_aMqqYUPR7f8B5dXa-30" value="Products" style="text;html=1;strokeColor=none;fillColor=none;align=center;verticalAlign=middle;whiteSpace=wrap;rounded=0;movable=1;resizable=1;rotatable=1;deletable=1;editable=1;locked=0;connectable=1;" parent="1" vertex="1">
          <mxGeometry x="222" y="55" width="60" height="30" as="geometry" />
        </mxCell>
        <mxCell id="k2h_aMqqYUPR7f8B5dXa-32" value="" style="endArrow=classic;html=1;rounded=0;exitX=0.5;exitY=0;exitDx=0;exitDy=0;entryX=0.5;entryY=1;entryDx=0;entryDy=0;" parent="1" source="k2h_aMqqYUPR7f8B5dXa-5" target="k2h_aMqqYUPR7f8B5dXa-28" edge="1">
          <mxGeometry width="50" height="50" relative="1" as="geometry">
            <mxPoint x="470" y="260" as="sourcePoint" />
            <mxPoint x="520" y="210" as="targetPoint" />
          </mxGeometry>
        </mxCell>
        <mxCell id="k2h_aMqqYUPR7f8B5dXa-34" value="" style="endArrow=classic;html=1;rounded=0;entryX=0.5;entryY=0;entryDx=0;entryDy=0;" parent="1" source="k2h_aMqqYUPR7f8B5dXa-6" target="k2h_aMqqYUPR7f8B5dXa-19" edge="1">
          <mxGeometry width="50" height="50" relative="1" as="geometry">
            <mxPoint x="189" y="240" as="sourcePoint" />
            <mxPoint x="239" y="190" as="targetPoint" />
          </mxGeometry>
        </mxCell>
        <mxCell id="k2h_aMqqYUPR7f8B5dXa-36" value="" style="endArrow=classic;html=1;rounded=0;exitX=1;exitY=0.5;exitDx=0;exitDy=0;entryX=0.5;entryY=1;entryDx=0;entryDy=0;" parent="1" source="k2h_aMqqYUPR7f8B5dXa-19" target="k2h_aMqqYUPR7f8B5dXa-25" edge="1">
          <mxGeometry width="50" height="50" relative="1" as="geometry">
            <mxPoint x="470" y="260" as="sourcePoint" />
            <mxPoint x="520" y="210" as="targetPoint" />
          </mxGeometry>
        </mxCell>
        <mxCell id="k2h_aMqqYUPR7f8B5dXa-37" value="" style="rounded=1;whiteSpace=wrap;html=1;movable=1;resizable=1;rotatable=1;deletable=1;editable=1;locked=0;connectable=1;" parent="1" vertex="1">
          <mxGeometry x="660" y="195.25" width="120" height="60" as="geometry" />
        </mxCell>
        <mxCell id="k2h_aMqqYUPR7f8B5dXa-38" value="" style="shape=image;verticalLabelPosition=bottom;verticalAlign=top;imageAspect=0;aspect=fixed;image=data:image/png,iVBORw0KGgoAAAANSUhEUgAAAIAAAACACAMAAAD04JH5AAAAYFBMVEX///9ssz5nsTVkry+w1JyVxnppsjnV6MqUxndiryz7/fr5/PderSS01qFgrijg7tmBvV6fy4Z6ulOMwm3I4bvx+O5wtUSbyoHo8+K826xarBzZ6tCkzo2q0ZVztkl8ulfERDarAAAEs0lEQVR4nO1a25KiMBCVRIMhKMhNwNv//+U6kwShOyAJ2a3aqpynKXHsQ6dP32C3CwgICAgICAgICAgI+I8g4sfhO66POPk79quCUrIClL6qv2BelJxFK8H40bsT6oKuNf8DmgvPBEor+28GB7/2K25n/80g9mlfPFefvwYrfBI4WR7Arws6f/br3t5+FKX+4vBKXAjQuy/7Wepi/+2C1o/9JLeOQAlS+iGwIEGWEn6eZ8C9pOS6mXUAybNEVPMBwgofcXiflaD6/QUG9LTd/oIEtdJf8zHiQYoluj9GlEGdbY9EX0AEyHWr/RjFGM+vOTcQYNHh2iAK/LbNvoASZKQTO9FxRIC96vd5oaJJym2dQQccwFj8sTklkP3+fYEM0k1SrNHxSzO7igIC7KX+ZQ/SJntuicMruB+u7O86SCAa7EAG9OFuvwW/9clsBYMEyFB9oW547UygnEYgvajPhYy1qQqoZiei6b+5SzGe5iBWqIBun/JkQB7odfmNwcH1jlIUIMOdlb22mUlEXHvoMD0ElrtJ8TStguQoP04K/fOQQMRV6m9hFDh1Z1CCqXLkR+mIwKCSC3DB0yUOgQRZLj/OPoGBCehWGPZQLt1ZBqqgCvJxe4QJDHkPZvDevjsDEoxS6cXbKDcbCOh4g308O9rar2BGbeTn4wbZQCA6yyjIYBuXWg5KogAOIPIU6+f4VAwEdOKFjTR72ZWEPbwDFQK3sWtNBPQZoFnubCXFNoIgUoTdNwKRUtwBtSaNjRTxLKjK/eMrAdMX5bdtXAAj4I0W2zISoLe5W8jX209wd9lsJhBF6wnUhv+WBCZjqu76J/6aJ8DW68BAQB3tfnyFSbd002/PxYANAcMRKHdXk99lTVW3j6nklQoM44TFEaBUPsRwBgtt34OapSZidAdDOV+FDjmQyK0XmhMgVEsg8EqB2vTnhqUUkVceX9ZlRAZrjL5mmYthLRrWHe3yukpXvQcKAdtqBKvxoDk0+kzQSw0kyINWEfCDDA6l7CmrTL10BipSdjFyILfuSC7QibrZWdrYRFKDCfaf/XhUo4qu98+HWQY6N9/QTH92GBBP0M5Q0Y8ze6mzFhpamTj15agp0vVgl9xNi0NGdJyjOmBTCEeo8LJBX+oIkhkt9OSc4VbAbXOeoHzOh1DKjudJF0LZSY9fAq31iOuzgxYtyPrPWWYXnlLC3iC8f3ZDkCU5cs7ZeT7HK8JxNCW307Usy+O9Gmlc5PgA9q72d8JQloGgk+ng274MZXjDmsrQ1/DjgqRvkYHylgcXiaE7JWSurtZXw1bVUYIaeE/544SXSVb1CWsz2r6pxAPGz13RvGsnJyuye2Msk8NeyRUz9Z9xVu7jthZJIuqsur/4TJVm7isyBUN7q92QpjR6NhFPOZlr1LiHff2XFmj5KttuH5cEC1g1orNwfWbl7anVzdkFerW9FXBlvRbenlyaZtU12C5BDdSdrYLbftQIw7C64v5thtFvsH9/YXsRmAK3Od/g68Gxws2egCcJahg78QWk7n3YDC5Wb1H03l5e+ODE1qaD9xc9vj/yQXtt6Co0F0+vTiDU1X4FKm8JMCAgICAgICAgICAg4J/gD4J8Ogog6069AAAAAElFTkSuQmCC;movable=1;resizable=1;rotatable=1;deletable=1;editable=1;locked=0;connectable=1;" parent="1" vertex="1">
          <mxGeometry x="666" y="205.25" width="40" height="40" as="geometry" />
        </mxCell>
        <mxCell id="k2h_aMqqYUPR7f8B5dXa-39" value="Notificaton" style="text;html=1;strokeColor=none;fillColor=none;align=center;verticalAlign=middle;whiteSpace=wrap;rounded=0;movable=1;resizable=1;rotatable=1;deletable=1;editable=1;locked=0;connectable=1;" parent="1" vertex="1">
          <mxGeometry x="706" y="210.25" width="60" height="30" as="geometry" />
        </mxCell>
        <mxCell id="k2h_aMqqYUPR7f8B5dXa-40" value="" style="rounded=1;whiteSpace=wrap;html=1;" parent="1" vertex="1">
          <mxGeometry x="490" y="195" width="120" height="60" as="geometry" />
        </mxCell>
        <mxCell id="k2h_aMqqYUPR7f8B5dXa-41" value="" style="shape=image;verticalLabelPosition=bottom;verticalAlign=top;imageAspect=0;aspect=fixed;image=data:image/png,iVBORw0KGgoAAAANSUhEUgAAAOEAAADhCAMAAAAJbSJIAAAAhFBMVEX///8AAABhYWHNzc3T09PCwsJKSkpycnL8/Pz19fXg4OC0tLTj4+Pa2tp/f3/n5+fv7++6urrGxsZoaGg4ODgnJycXFxeXl5eKiop3d3c+Pj4vLy+fn5+urq5PT0+oqKhZWVkeHh6FhYWQkJCbm5tFRUULCws6OjohISEpKSkYGBgyMjKhW/z/AAAIk0lEQVR4nO2caXuyOhCGiYJsoqitS91QW63t//9/h5CFCQFJ+2IRz9wfepUIYx5IJpNJ0LIQBEEQBEEQBEEQBEEQBEEQBEEQBEEQBEEQBEEQBEEQBEEQBEEQBEEQBEGQ/w3O6IOQz9570HZF7sQ7kbz1267MHQjmBDJruz6NMyUFrn7bVWqWqCgwldh2nRrF0wU+WUMd5bLcN/n/tO1qNUfMJZ0zTbHLD1/arldzbJiiV089JlGrtWqSDyYolgU9VrBosU7NwvSs8oIhK0naqlDT8G7ogCI2/L+2VqWGCfRex9rtubUqNcyYKYSx6DorObRWpabR/IrPSt7aq1LDsCdG8oIFKxi1V6WGOTFBrjgWUapz66JOMVQjUUeEbcpJ/SON5w6z0Cux8PD0hKZRONl8i4MTOGPylYfkxw5q9EkZ+edeon7SwRSAUyLQlp/68+JnYYt1/SVbTSAQoQnspBMqPkUwOezpAmGY3gD+n6RMYiikBwTkKZzecvQp/k+Uax2K7J2wvrVeydtkc+5k6+mGmma8fM0qf1gOYfGFa2KutS+aLEyq9hXRAR1Yx2eyo2bWtMRP797Omu7Sf4kfn8/Ai03k/aNxsZ39d8dYin2dGsoEhZ7nsdugnMUU9viRSzwa7I5PqY6Q+l2PrOL46DvfmcIxiSIZ5e9JicLB/RSG2ReslDI+4T/KAh6oz6sUxmT3Ts9KhaVOKkkf3HKXfeDQZ0MV5hcOyQMo5N0T9K2ZVqIoHI0CQhXuLzvLOVtkaK0n2QfMmfnZHeIXrh5B4UXrGmFeIw5U6JEwIpNU4XFvWd/HKHGtCxt5nG/P96lCX/pOLu7iXltUeM3KYPKUO9c8IlAULsjb5eXVytqiTT4uH8TbfGWfODR5p7RSnl1IG7U1nNnWnylUPc2L9qWTmwqzctLPdLzRuu+W1mC+Dc++Q/0qVbjZvMPrQL+8r8LgtBaN5h0Mh7wfgnGNdx5wDlBoZy4p3PvpkOG7tDVG6R3b9pK9FdHxxvX80WjEmwnrmZe/UWgPCMSVfoT70o08U4Tp4GJ1tDCHKUxALe6ncEWKbHklxLRJjvA8u+qCq/9NIbjubgr9V00gcy7jXX7MXH7MBcJu+PgKy6eHJLGWyvH1tN3I4FWJrB5e4Sf5Ocpa/6MrdGW1V6FtTxffuh6NvWLhwRXaotYyL9M/KGo+J6TIUjXx4ArFkijM6sO5Yvq44oIn2hdMPLZCkRxVN9HI1NOKDfULoC8ZF208tkLuL7eFYq5mIo69LRO9XpbsJ/qtwumfKGSOVNt5sS30TYofV2RnCgodxkTERfYxC25n9HZ5k+wzWhw4LNk+mMqzCwq5obDMkJUZkk+gGr+8Z4mHaHY7i3N8Bg+voxfZvs+O+D76wYYo6LMnEWjxNaMo30RB21Zu6Da8G2pdS/TEnysUAnm7B5vJCJ2Z5Wb3yie6QiGQ3331hrjGCqdVJy5/qVAI5O1nRFR2xgqFQJ64PVYbuo1TdeLidwqFQJ64KqiQ1CsUAif1hm7T8DMUAnlCWWaarqcwlPNPYtAPhUB+p8birFdqCERd9ZVrth8KgSKnKyYiXHD/DCs2nLJ2MuhPUxzFl67UCy0xx+GC7Tk0dJtGfakQKGZWIiCUg4x3UCpWOR7OCncq0gxdjRU2OB7OxI2X8d+qcJy3NnZUEdMkwj3JOeiocJzvVDNQeDumkcUGMY0gKBhRcndK965QKMjvDGvdMK0gluYNFNbEpTwINYlLOfmix1h7hLLMRGFeo7jEUGyssHZusTSdW2h3qtRPn00VBlqxaujLWGHt/JDoY1Hp/JAU68vmlQVn1TNVqBm6VBuq4Tdz/I1iQWml+c4jlmDeqd82M1UIvNykzJBrrrCpPI1ALh//o8J8KZ0p/Pi9wspcm9o8lVyb0mRUhXLUYv2wsP/vYq5QxiGlhj5+oLA6X+qDTHEhXwqXopnCV+GgPnkxX1xVF+lJvcK5GPG/+FrCUL1zuiEDKnPegcj2G+W8eYI8USqhDLVKpF+hcCc7zk4xpLhwxVFHk/q1/6hq3YIHN2brFiJk4U4i4Y8EoOwSrM7TiJCFO23WOJRm+pIbCs6j/dJgAwxYe9qA9sA9reHak0g8Mm/Dj8By3Um5PTcyUWIHyAQaAu1mkRuKiR+kj9DoZa2y9cOB/FLBzfVDMVFlToIfyE0AQmC9QrmiMISGZNUWwJBrW2/ht+WZbNpuYg2Yd9M5MJhGszTP5E/ykbZeoZgwnT1wV8mVGbpAQ6ljG9A/Hwb7jsoUsmdYso5foVC8YZTAamoYKBSGmLdJqg0daCXTR90z2KdVppD3Q30vRvkacB7KZ07CO5NSDBTKnTzM0KHS0MC3dk7afk023pcp5KO+tp8G2lOziWIXYObc/Ktao625Qmko8zb+WjUUSkPTnnWyTvFGmctWULYnSgwA9XuiEnEoZuhsCIXZtvWwZMRPckNMoQzPVpWGrgEwdBpE/ngFzFRRsa9NDJQ39rVFMzclD7ldBm8MQ1HRl/RheNmp3HHZheusICvIZy6rckPfNMMIDEWjnlv/pl3l3sQ8Vqzcm1hL4IThtIkNm/9gqLi/FEQIM1JCo/tL/wJ9kguiyYMusHN7hPVVXjh58DWJxbzVwxOXCIShaPf36ksBle9bOCAP0MH3LUTwUHxnRlFi83dmtt3TJ+cD2ntPBgusHYG3wLxgUZDcdfikXX//8GleVw90B6m9kdhtKt8DfhqFPFcHQ1cWXs8rL+kaTKH+Pv4dd5T/MTwxp/2mgsmUshvwwUH7XQz75lVdouK3TdZt16tB8pz+k/4+TflvDP18q+EjY+sCP+uv6hTab319PtlvfdH1G0XgU/0MluDZf3OP8uy/m4ggCIIgCIIgCIIgCIIgCIIgCIIgCIIgCIIgCIIgCIIgCIIgCIIgCIIgCIJ0mP8AvdRk0Zd6tPcAAAAASUVORK5CYII=" parent="1" vertex="1">
          <mxGeometry x="522" y="197" width="56" height="56" as="geometry" />
        </mxCell>
        <mxCell id="k2h_aMqqYUPR7f8B5dXa-42" value="/products" style="text;html=1;strokeColor=none;fillColor=#FFFFFF;align=center;verticalAlign=middle;whiteSpace=wrap;rounded=0;" parent="1" vertex="1">
          <mxGeometry x="180" y="144.25" width="60" height="11.75" as="geometry" />
        </mxCell>
        <mxCell id="k2h_aMqqYUPR7f8B5dXa-43" value="/orders" style="text;html=1;strokeColor=none;fillColor=#FFFFFF;align=center;verticalAlign=middle;whiteSpace=wrap;rounded=0;" parent="1" vertex="1">
          <mxGeometry x="174" y="324" width="60" height="10" as="geometry" />
        </mxCell>
        <mxCell id="k2h_aMqqYUPR7f8B5dXa-45" value="/inventory" style="text;html=1;strokeColor=none;fillColor=#FFFFFF;align=center;verticalAlign=middle;whiteSpace=wrap;rounded=0;" parent="1" vertex="1">
          <mxGeometry x="196" y="230.25" width="60" height="15" as="geometry" />
        </mxCell>
        <mxCell id="k2h_aMqqYUPR7f8B5dXa-53" value="" style="endArrow=classic;html=1;rounded=0;entryX=0;entryY=0.5;entryDx=0;entryDy=0;" parent="1" source="k2h_aMqqYUPR7f8B5dXa-6" target="k2h_aMqqYUPR7f8B5dXa-25" edge="1">
          <mxGeometry width="50" height="50" relative="1" as="geometry">
            <mxPoint x="470" y="260" as="sourcePoint" />
            <mxPoint x="320" y="270" as="targetPoint" />
          </mxGeometry>
        </mxCell>
        <mxCell id="k2h_aMqqYUPR7f8B5dXa-55" value="" style="endArrow=classic;html=1;rounded=0;exitX=-0.181;exitY=1.096;exitDx=0;exitDy=0;entryX=0.5;entryY=0;entryDx=0;entryDy=0;exitPerimeter=0;" parent="1" source="k2h_aMqqYUPR7f8B5dXa-73" edge="1">
          <mxGeometry width="50" height="50" relative="1" as="geometry">
            <mxPoint x="287" y="65" as="sourcePoint" />
            <mxPoint x="541" y="190" as="targetPoint" />
          </mxGeometry>
        </mxCell>
        <mxCell id="k2h_aMqqYUPR7f8B5dXa-59" value="Async Send Notification" style="text;html=1;strokeColor=none;fillColor=#FFFFFF;align=center;verticalAlign=middle;whiteSpace=wrap;rounded=0;" parent="1" vertex="1">
          <mxGeometry x="349" y="333" width="130" height="19" as="geometry" />
        </mxCell>
        <mxCell id="k2h_aMqqYUPR7f8B5dXa-54" value="Async Send Notification" style="text;html=1;strokeColor=none;fillColor=#FFFFFF;align=center;verticalAlign=middle;whiteSpace=wrap;rounded=0;" parent="1" vertex="1">
          <mxGeometry x="340" y="122" width="130" height="10" as="geometry" />
        </mxCell>
        <mxCell id="k2h_aMqqYUPR7f8B5dXa-64" value="" style="endArrow=classic;html=1;rounded=0;entryX=0.5;entryY=1;entryDx=0;entryDy=0;exitX=1;exitY=0.5;exitDx=0;exitDy=0;" parent="1" source="k2h_aMqqYUPR7f8B5dXa-19" target="k2h_aMqqYUPR7f8B5dXa-40" edge="1">
          <mxGeometry width="50" height="50" relative="1" as="geometry">
            <mxPoint x="300" y="340" as="sourcePoint" />
            <mxPoint x="520" y="210" as="targetPoint" />
          </mxGeometry>
        </mxCell>
        <mxCell id="k2h_aMqqYUPR7f8B5dXa-66" value="" style="endArrow=classic;html=1;rounded=0;exitX=1;exitY=0.5;exitDx=0;exitDy=0;entryX=0;entryY=0.5;entryDx=0;entryDy=0;" parent="1" source="k2h_aMqqYUPR7f8B5dXa-25" target="k2h_aMqqYUPR7f8B5dXa-40" edge="1">
          <mxGeometry width="50" height="50" relative="1" as="geometry">
            <mxPoint x="470" y="260" as="sourcePoint" />
            <mxPoint x="520" y="210" as="targetPoint" />
          </mxGeometry>
        </mxCell>
        <mxCell id="k2h_aMqqYUPR7f8B5dXa-67" value="Asy Send Notification" style="text;html=1;strokeColor=none;fillColor=none;align=center;verticalAlign=middle;whiteSpace=wrap;rounded=0;" parent="1" vertex="1">
          <mxGeometry x="410" y="235.25" width="61" height="5" as="geometry" />
        </mxCell>
        <mxCell id="k2h_aMqqYUPR7f8B5dXa-71" value="" style="endArrow=classic;html=1;rounded=0;entryX=0;entryY=0.5;entryDx=0;entryDy=0;exitX=1;exitY=0.5;exitDx=0;exitDy=0;" parent="1" source="k2h_aMqqYUPR7f8B5dXa-40" target="k2h_aMqqYUPR7f8B5dXa-37" edge="1">
          <mxGeometry width="50" height="50" relative="1" as="geometry">
            <mxPoint x="550" y="260" as="sourcePoint" />
            <mxPoint x="600" y="210" as="targetPoint" />
          </mxGeometry>
        </mxCell>
        <mxCell id="k2h_aMqqYUPR7f8B5dXa-72" value="" style="outlineConnect=0;dashed=0;verticalLabelPosition=bottom;verticalAlign=top;align=center;html=1;shape=mxgraph.aws3.internet_3;fillColor=#D2D3D3;gradientColor=none;" parent="1" vertex="1">
          <mxGeometry x="10" y="203" width="39.5" height="40" as="geometry" />
        </mxCell>
        <mxCell id="k2h_aMqqYUPR7f8B5dXa-73" value="" style="image;aspect=fixed;html=1;points=[];align=center;fontSize=12;image=img/lib/azure2/databases/Azure_Database_PostgreSQL_Server.svg;" parent="1" vertex="1">
          <mxGeometry x="301" y="25" width="33.75" height="45" as="geometry" />
        </mxCell>
        <mxCell id="k2h_aMqqYUPR7f8B5dXa-74" value="" style="outlineConnect=0;dashed=0;verticalLabelPosition=bottom;verticalAlign=top;align=center;html=1;shape=mxgraph.aws3.mysql_db_instance;fillColor=#2E73B8;gradientColor=none;" parent="1" vertex="1">
          <mxGeometry x="296" y="440" width="34" height="50" as="geometry" />
        </mxCell>
        <mxCell id="k2h_aMqqYUPR7f8B5dXa-75" value="" style="dashed=0;outlineConnect=0;html=1;align=center;labelPosition=center;verticalLabelPosition=bottom;verticalAlign=top;shape=mxgraph.weblogos.mongodb" parent="1" vertex="1">
          <mxGeometry x="390" y="160" width="41.2" height="56.2" as="geometry" />
        </mxCell>
        <mxCell id="k2h_aMqqYUPR7f8B5dXa-77" value="&lt;b&gt;&lt;i&gt;&lt;font style=&quot;font-size: 18px;&quot;&gt;Public Network&lt;/font&gt;&lt;/i&gt;&lt;/b&gt;" style="text;html=1;strokeColor=none;fillColor=none;align=center;verticalAlign=middle;whiteSpace=wrap;rounded=0;" parent="1" vertex="1">
          <mxGeometry x="10" y="144.25" width="60" height="30" as="geometry" />
        </mxCell>
        <mxCell id="k2h_aMqqYUPR7f8B5dXa-79" value="&lt;font style=&quot;font-size: 18px;&quot;&gt;&lt;b style=&quot;&quot;&gt;&lt;i&gt;Private Network&lt;/i&gt;&lt;/b&gt;&lt;/font&gt;" style="text;html=1;strokeColor=none;fillColor=none;align=center;verticalAlign=middle;whiteSpace=wrap;rounded=0;" parent="1" vertex="1">
          <mxGeometry x="690" y="40" width="110" height="60" as="geometry" />
        </mxCell>
        <mxCell id="k2h_aMqqYUPR7f8B5dXa-82" style="edgeStyle=orthogonalEdgeStyle;rounded=0;orthogonalLoop=1;jettySize=auto;html=1;exitX=0.5;exitY=1;exitDx=0;exitDy=0;" parent="1" edge="1">
          <mxGeometry relative="1" as="geometry">
            <mxPoint x="480" y="740" as="sourcePoint" />
            <mxPoint x="480" y="740" as="targetPoint" />
          </mxGeometry>
        </mxCell>
        <mxCell id="k2h_aMqqYUPR7f8B5dXa-88" value="Private docker Register" style="rounded=0;whiteSpace=wrap;html=1;" parent="1" vertex="1">
          <mxGeometry x="165.5" y="611" width="120" height="49" as="geometry" />
        </mxCell>
        <mxCell id="k2h_aMqqYUPR7f8B5dXa-89" value="" style="endArrow=classic;html=1;rounded=0;exitX=0.131;exitY=1.001;exitDx=0;exitDy=0;exitPerimeter=0;entryX=0.5;entryY=0;entryDx=0;entryDy=0;" parent="1" source="k2h_aMqqYUPR7f8B5dXa-12" target="k2h_aMqqYUPR7f8B5dXa-88" edge="1">
          <mxGeometry width="50" height="50" relative="1" as="geometry">
            <mxPoint x="490" y="460" as="sourcePoint" />
            <mxPoint x="540" y="410" as="targetPoint" />
          </mxGeometry>
        </mxCell>
        <mxCell id="k2h_aMqqYUPR7f8B5dXa-86" value="Pull Images" style="text;html=1;strokeColor=none;fillColor=#FFFFFF;align=center;verticalAlign=middle;whiteSpace=wrap;rounded=0;" parent="1" vertex="1">
          <mxGeometry x="184" y="550" width="91" height="30" as="geometry" />
        </mxCell>
        <mxCell id="k2h_aMqqYUPR7f8B5dXa-90" value="" style="image;sketch=0;aspect=fixed;html=1;points=[];align=center;fontSize=12;image=img/lib/mscae/Docker.svg;" parent="1" vertex="1">
          <mxGeometry x="201" y="674" width="48.78" height="40" as="geometry" />
        </mxCell>
        <mxCell id="k2h_aMqqYUPR7f8B5dXa-91" value="Eureka Server( Discovery Server)" style="rounded=0;whiteSpace=wrap;html=1;" parent="1" vertex="1">
          <mxGeometry x="370" y="610" width="120" height="60" as="geometry" />
        </mxCell>
        <mxCell id="k2h_aMqqYUPR7f8B5dXa-92" value="" style="endArrow=classic;html=1;rounded=0;exitX=0.131;exitY=1.001;exitDx=0;exitDy=0;exitPerimeter=0;entryX=0.5;entryY=0;entryDx=0;entryDy=0;" parent="1" target="k2h_aMqqYUPR7f8B5dXa-91" edge="1">
          <mxGeometry width="50" height="50" relative="1" as="geometry">
            <mxPoint x="430.5" y="520" as="sourcePoint" />
            <mxPoint x="744.5" y="409" as="targetPoint" />
          </mxGeometry>
        </mxCell>
        <mxCell id="k2h_aMqqYUPR7f8B5dXa-93" value="Microservices Register like a client" style="text;html=1;strokeColor=none;fillColor=#FFFFFF;align=center;verticalAlign=middle;whiteSpace=wrap;rounded=0;" parent="1" vertex="1">
          <mxGeometry x="380" y="549" width="110" height="30" as="geometry" />
        </mxCell>
        <mxCell id="k2h_aMqqYUPR7f8B5dXa-95" value="Config Server" style="rounded=0;whiteSpace=wrap;html=1;" parent="1" vertex="1">
          <mxGeometry x="570" y="610" width="120" height="60" as="geometry" />
        </mxCell>
        <mxCell id="k2h_aMqqYUPR7f8B5dXa-96" value="" style="endArrow=classic;html=1;rounded=0;exitX=0.131;exitY=1.001;exitDx=0;exitDy=0;exitPerimeter=0;entryX=0.5;entryY=0;entryDx=0;entryDy=0;" parent="1" target="k2h_aMqqYUPR7f8B5dXa-95" edge="1">
          <mxGeometry width="50" height="50" relative="1" as="geometry">
            <mxPoint x="630.5" y="520" as="sourcePoint" />
            <mxPoint x="944.5" y="409" as="targetPoint" />
          </mxGeometry>
        </mxCell>
        <mxCell id="k2h_aMqqYUPR7f8B5dXa-97" value="Pull environment configuration" style="text;html=1;strokeColor=none;fillColor=#FFFFFF;align=center;verticalAlign=middle;whiteSpace=wrap;rounded=0;" parent="1" vertex="1">
          <mxGeometry x="588.5" y="549" width="91" height="30" as="geometry" />
        </mxCell>
        <mxCell id="k2h_aMqqYUPR7f8B5dXa-99" value="" style="shape=image;verticalLabelPosition=bottom;verticalAlign=top;imageAspect=0;aspect=fixed;image=data:image/png,iVBORw0KGgoAAAANSUhEUgAAAIAAAACACAMAAAD04JH5AAAAYFBMVEX///9ssz5nsTVkry+w1JyVxnppsjnV6MqUxndiryz7/fr5/PderSS01qFgrijg7tmBvV6fy4Z6ulOMwm3I4bvx+O5wtUSbyoHo8+K826xarBzZ6tCkzo2q0ZVztkl8ulfERDarAAAEs0lEQVR4nO1a25KiMBCVRIMhKMhNwNv//+U6kwShOyAJ2a3aqpynKXHsQ6dP32C3CwgICAgICAgICAgI+I8g4sfhO66POPk79quCUrIClL6qv2BelJxFK8H40bsT6oKuNf8DmgvPBEor+28GB7/2K25n/80g9mlfPFefvwYrfBI4WR7Arws6f/br3t5+FKX+4vBKXAjQuy/7Wepi/+2C1o/9JLeOQAlS+iGwIEGWEn6eZ8C9pOS6mXUAybNEVPMBwgofcXiflaD6/QUG9LTd/oIEtdJf8zHiQYoluj9GlEGdbY9EX0AEyHWr/RjFGM+vOTcQYNHh2iAK/LbNvoASZKQTO9FxRIC96vd5oaJJym2dQQccwFj8sTklkP3+fYEM0k1SrNHxSzO7igIC7KX+ZQ/SJntuicMruB+u7O86SCAa7EAG9OFuvwW/9clsBYMEyFB9oW547UygnEYgvajPhYy1qQqoZiei6b+5SzGe5iBWqIBun/JkQB7odfmNwcH1jlIUIMOdlb22mUlEXHvoMD0ElrtJ8TStguQoP04K/fOQQMRV6m9hFDh1Z1CCqXLkR+mIwKCSC3DB0yUOgQRZLj/OPoGBCehWGPZQLt1ZBqqgCvJxe4QJDHkPZvDevjsDEoxS6cXbKDcbCOh4g308O9rar2BGbeTn4wbZQCA6yyjIYBuXWg5KogAOIPIU6+f4VAwEdOKFjTR72ZWEPbwDFQK3sWtNBPQZoFnubCXFNoIgUoTdNwKRUtwBtSaNjRTxLKjK/eMrAdMX5bdtXAAj4I0W2zISoLe5W8jX209wd9lsJhBF6wnUhv+WBCZjqu76J/6aJ8DW68BAQB3tfnyFSbd002/PxYANAcMRKHdXk99lTVW3j6nklQoM44TFEaBUPsRwBgtt34OapSZidAdDOV+FDjmQyK0XmhMgVEsg8EqB2vTnhqUUkVceX9ZlRAZrjL5mmYthLRrWHe3yukpXvQcKAdtqBKvxoDk0+kzQSw0kyINWEfCDDA6l7CmrTL10BipSdjFyILfuSC7QibrZWdrYRFKDCfaf/XhUo4qu98+HWQY6N9/QTH92GBBP0M5Q0Y8ze6mzFhpamTj15agp0vVgl9xNi0NGdJyjOmBTCEeo8LJBX+oIkhkt9OSc4VbAbXOeoHzOh1DKjudJF0LZSY9fAq31iOuzgxYtyPrPWWYXnlLC3iC8f3ZDkCU5cs7ZeT7HK8JxNCW307Usy+O9Gmlc5PgA9q72d8JQloGgk+ng274MZXjDmsrQ1/DjgqRvkYHylgcXiaE7JWSurtZXw1bVUYIaeE/544SXSVb1CWsz2r6pxAPGz13RvGsnJyuye2Msk8NeyRUz9Z9xVu7jthZJIuqsur/4TJVm7isyBUN7q92QpjR6NhFPOZlr1LiHff2XFmj5KttuH5cEC1g1orNwfWbl7anVzdkFerW9FXBlvRbenlyaZtU12C5BDdSdrYLbftQIw7C64v5thtFvsH9/YXsRmAK3Od/g68Gxws2egCcJahg78QWk7n3YDC5Wb1H03l5e+ODE1qaD9xc9vj/yQXtt6Co0F0+vTiDU1X4FKm8JMCAgICAgICAgICAg4J/gD4J8Ogog6069AAAAAElFTkSuQmCC" parent="1" vertex="1">
          <mxGeometry x="410" y="679" width="40" height="40" as="geometry" />
        </mxCell>
        <mxCell id="k2h_aMqqYUPR7f8B5dXa-100" value="" style="shape=image;html=1;verticalAlign=top;verticalLabelPosition=bottom;labelBackgroundColor=#ffffff;imageAspect=0;aspect=fixed;image=https://cdn4.iconfinder.com/data/icons/ionicons/512/icon-social-github-128.png" parent="1" vertex="1">
          <mxGeometry x="610.5" y="671" width="39" height="39" as="geometry" />
        </mxCell>
        <mxCell id="k2h_aMqqYUPR7f8B5dXa-101" value="" style="endArrow=classic;html=1;rounded=0;exitX=0;exitY=0.5;exitDx=0;exitDy=0;entryX=1;entryY=0.5;entryDx=0;entryDy=0;" parent="1" source="k2h_aMqqYUPR7f8B5dXa-95" target="k2h_aMqqYUPR7f8B5dXa-91" edge="1">
          <mxGeometry width="50" height="50" relative="1" as="geometry">
            <mxPoint x="440" y="650" as="sourcePoint" />
            <mxPoint x="490" y="600" as="targetPoint" />
          </mxGeometry>
        </mxCell>
        <mxCell id="k2h_aMqqYUPR7f8B5dXa-102" value="pull configuration" style="text;html=1;strokeColor=none;fillColor=none;align=center;verticalAlign=middle;whiteSpace=wrap;rounded=0;" parent="1" vertex="1">
          <mxGeometry x="500" y="606" width="60" height="30" as="geometry" />
        </mxCell>
        <mxCell id="k2h_aMqqYUPR7f8B5dXa-106" value="" style="dashed=0;outlineConnect=0;html=1;align=center;labelPosition=center;verticalLabelPosition=bottom;verticalAlign=top;shape=mxgraph.weblogos.mongodb" parent="1" vertex="1">
          <mxGeometry x="780" y="156" width="41.2" height="56.2" as="geometry" />
        </mxCell>
        <mxCell id="k2h_aMqqYUPR7f8B5dXa-107" style="edgeStyle=orthogonalEdgeStyle;rounded=0;orthogonalLoop=1;jettySize=auto;html=1;exitX=0.5;exitY=1;exitDx=0;exitDy=0;" parent="1" source="k2h_aMqqYUPR7f8B5dXa-88" target="k2h_aMqqYUPR7f8B5dXa-88" edge="1">
          <mxGeometry relative="1" as="geometry" />
        </mxCell>
        <mxCell id="beOF6JwoTMv6E4E7oVId-1" value="Sync WebClient (WebFlux)" style="text;html=1;strokeColor=none;fillColor=#FFFFFF;align=center;verticalAlign=middle;whiteSpace=wrap;rounded=0;" vertex="1" parent="1">
          <mxGeometry x="252.88" y="290" width="130" height="30" as="geometry" />
        </mxCell>
      </root>
    </mxGraphModel>
  </diagram>
</mxfile>
